<svg width="556" height="27" viewBox="0 0 556 27" fill="none" xmlns="http://www.w3.org/2000/svg">
<path d="M2.85156 0.40625H7.59766L13.75 18.7051L19.8848 0.40625H24.6309L15.666 26H11.8164L2.85156 0.40625ZM0.109375 0.40625H4.94336L5.83984 19.373V26H0.109375V0.40625ZM22.5391 0.40625H27.3906V26H21.6426V19.373L22.5391 0.40625ZM37.7441 0.40625V26H32.0312V0.40625H37.7441ZM63.4785 0.40625V26H57.7656L48.0977 9.45898V26H42.3672V0.40625H48.0977L57.7832 16.9473V0.40625H63.4785ZM84.8887 10.707V15.1367H71.6348V10.707H84.8887ZM73.4453 0.40625V26H67.7148V0.40625H73.4453ZM88.8438 0.40625V26H83.1309V0.40625H88.8438ZM104.049 5.27539L97.4395 26H91.3223L100.797 0.40625H104.664L104.049 5.27539ZM109.533 26L102.906 5.27539L102.221 0.40625H106.141L115.65 26H109.533ZM109.252 16.4727V20.9023H95.9102V16.4727H109.252ZM137.676 0.40625V26H131.963V0.40625H137.676ZM145.463 0.40625V4.85352H124.334V0.40625H145.463ZM169.141 12.6406V13.7832C169.141 15.7285 168.871 17.4746 168.332 19.0215C167.805 20.5684 167.049 21.8867 166.064 22.9766C165.092 24.0664 163.932 24.9043 162.584 25.4902C161.248 26.0645 159.766 26.3516 158.137 26.3516C156.508 26.3516 155.02 26.0645 153.672 25.4902C152.324 24.9043 151.152 24.0664 150.156 22.9766C149.172 21.8867 148.41 20.5684 147.871 19.0215C147.332 17.4746 147.062 15.7285 147.062 13.7832V12.6406C147.062 10.6953 147.332 8.94922 147.871 7.40234C148.41 5.84375 149.166 4.51953 150.139 3.42969C151.123 2.33984 152.289 1.50781 153.637 0.933594C154.984 0.347656 156.473 0.0546875 158.102 0.0546875C159.73 0.0546875 161.219 0.347656 162.566 0.933594C163.914 1.50781 165.074 2.33984 166.047 3.42969C167.031 4.51953 167.793 5.84375 168.332 7.40234C168.871 8.94922 169.141 10.6953 169.141 12.6406ZM163.357 13.7832V12.6055C163.357 11.3047 163.24 10.1562 163.006 9.16016C162.771 8.15234 162.432 7.30859 161.986 6.62891C161.541 5.94922 160.99 5.43945 160.334 5.09961C159.678 4.74805 158.934 4.57227 158.102 4.57227C157.234 4.57227 156.479 4.74805 155.834 5.09961C155.189 5.43945 154.645 5.94922 154.199 6.62891C153.766 7.30859 153.432 8.15234 153.197 9.16016C152.975 10.1562 152.863 11.3047 152.863 12.6055V13.7832C152.863 15.0723 152.975 16.2207 153.197 17.2285C153.432 18.2246 153.771 19.0684 154.217 19.7598C154.662 20.4512 155.207 20.9727 155.852 21.3242C156.508 21.6758 157.27 21.8516 158.137 21.8516C158.969 21.8516 159.707 21.6758 160.352 21.3242C161.008 20.9727 161.559 20.4512 162.004 19.7598C162.449 19.0684 162.783 18.2246 163.006 17.2285C163.24 16.2207 163.357 15.0723 163.357 13.7832ZM172.656 0.40625H182.482C184.439 0.40625 186.133 0.699219 187.562 1.28516C189.004 1.87109 190.111 2.73828 190.885 3.88672C191.658 5.03516 192.045 6.45312 192.045 8.14062C192.045 9.54688 191.816 10.7422 191.359 11.7266C190.902 12.7109 190.258 13.5254 189.426 14.1699C188.605 14.8145 187.645 15.3359 186.543 15.7344L184.68 16.7539H176.312L176.277 12.3066H182.5C183.355 12.3066 184.064 12.1543 184.627 11.8496C185.189 11.5449 185.611 11.1172 185.893 10.5664C186.186 10.0039 186.332 9.34766 186.332 8.59766C186.332 7.82422 186.186 7.15625 185.893 6.59375C185.6 6.03125 185.166 5.60352 184.592 5.31055C184.029 5.00586 183.326 4.85352 182.482 4.85352H178.387V26H172.656V0.40625ZM186.824 26L181.076 14.627L187.123 14.6094L192.959 25.7363V26H186.824ZM210.643 17.4219H216.338C216.244 19.1797 215.764 20.7324 214.896 22.0801C214.041 23.416 212.852 24.4648 211.328 25.2266C209.805 25.9766 207.994 26.3516 205.896 26.3516C204.221 26.3516 202.721 26.0645 201.396 25.4902C200.072 24.916 198.947 24.0957 198.021 23.0293C197.107 21.9512 196.404 20.6562 195.912 19.1445C195.432 17.6211 195.191 15.9043 195.191 13.9941V12.4297C195.191 10.5195 195.443 8.80273 195.947 7.2793C196.451 5.75586 197.172 4.45508 198.109 3.37695C199.047 2.29883 200.172 1.47266 201.484 0.898438C202.797 0.324219 204.262 0.0371094 205.879 0.0371094C208.059 0.0371094 209.898 0.429687 211.398 1.21484C212.898 2 214.059 3.07812 214.879 4.44922C215.711 5.82031 216.209 7.38477 216.373 9.14258H210.66C210.613 8.14648 210.426 7.30859 210.098 6.62891C209.77 5.9375 209.266 5.41602 208.586 5.06445C207.906 4.71289 207.004 4.53711 205.879 4.53711C205.059 4.53711 204.338 4.68945 203.717 4.99414C203.107 5.29883 202.598 5.77344 202.188 6.41797C201.789 7.0625 201.49 7.88281 201.291 8.87891C201.092 9.86328 200.992 11.0352 200.992 12.3945V13.9941C200.992 15.3418 201.08 16.5078 201.256 17.4922C201.432 18.4766 201.713 19.291 202.1 19.9355C202.498 20.5801 203.008 21.0605 203.629 21.377C204.25 21.6934 205.006 21.8516 205.896 21.8516C206.916 21.8516 207.766 21.6934 208.445 21.377C209.125 21.0488 209.646 20.5566 210.01 19.9004C210.373 19.2441 210.584 18.418 210.643 17.4219ZM225.619 0.40625V26H219.906V0.40625H225.619ZM238.346 26H232.721L232.756 21.5703H238.346C239.623 21.5703 240.701 21.2773 241.58 20.6914C242.459 20.0938 243.127 19.2148 243.584 18.0547C244.041 16.8828 244.27 15.459 244.27 13.7832V12.6055C244.27 11.3398 244.141 10.2266 243.883 9.26562C243.625 8.29297 243.244 7.47852 242.74 6.82227C242.236 6.16602 241.609 5.67383 240.859 5.3457C240.121 5.01758 239.271 4.85352 238.311 4.85352H232.615V0.40625H238.311C240.045 0.40625 241.627 0.699219 243.057 1.28516C244.498 1.87109 245.74 2.70898 246.783 3.79883C247.838 4.88867 248.652 6.17773 249.227 7.66602C249.801 9.1543 250.088 10.8125 250.088 12.6406V13.7832C250.088 15.5996 249.801 17.2578 249.227 18.7578C248.652 20.2461 247.838 21.5352 246.783 22.625C245.74 23.7031 244.504 24.5352 243.074 25.1211C241.645 25.707 240.068 26 238.346 26ZM235.973 0.40625V26H230.242V0.40625H235.973ZM263.834 5.27539L257.225 26H251.107L260.582 0.40625H264.449L263.834 5.27539ZM269.318 26L262.691 5.27539L262.006 0.40625H265.926L275.436 26H269.318ZM269.037 16.4727V20.9023H255.695V16.4727H269.037ZM286.527 0.40625H296.354C298.311 0.40625 300.004 0.699219 301.434 1.28516C302.875 1.87109 303.982 2.73828 304.756 3.88672C305.529 5.03516 305.916 6.45312 305.916 8.14062C305.916 9.54688 305.688 10.7422 305.23 11.7266C304.773 12.7109 304.129 13.5254 303.297 14.1699C302.477 14.8145 301.516 15.3359 300.414 15.7344L298.551 16.7539H290.184L290.148 12.3066H296.371C297.227 12.3066 297.936 12.1543 298.498 11.8496C299.061 11.5449 299.482 11.1172 299.764 10.5664C300.057 10.0039 300.203 9.34766 300.203 8.59766C300.203 7.82422 300.057 7.15625 299.764 6.59375C299.471 6.03125 299.037 5.60352 298.463 5.31055C297.9 5.00586 297.197 4.85352 296.354 4.85352H292.258V26H286.527V0.40625ZM300.695 26L294.947 14.627L300.994 14.6094L306.83 25.7363V26H300.695ZM323.811 0.40625H329.541V17.2109C329.541 19.2031 329.119 20.8789 328.275 22.2383C327.443 23.5977 326.283 24.623 324.795 25.3145C323.307 26.0059 321.584 26.3516 319.627 26.3516C317.658 26.3516 315.924 26.0059 314.424 25.3145C312.936 24.623 311.764 23.5977 310.908 22.2383C310.064 20.8789 309.643 19.2031 309.643 17.2109V0.40625H315.391V17.2109C315.391 18.3125 315.555 19.2148 315.883 19.918C316.223 20.6094 316.709 21.1191 317.342 21.4473C317.975 21.7637 318.736 21.9219 319.627 21.9219C320.518 21.9219 321.273 21.7637 321.895 21.4473C322.527 21.1191 323.002 20.6094 323.318 19.918C323.646 19.2148 323.811 18.3125 323.811 17.2109V0.40625ZM336.379 0.40625H341.125L347.277 18.7051L353.412 0.40625H358.158L349.193 26H345.344L336.379 0.40625ZM333.637 0.40625H338.471L339.367 19.373V26H333.637V0.40625ZM356.066 0.40625H360.918V26H355.17V19.373L356.066 0.40625ZM386.512 12.6406V13.7832C386.512 15.7285 386.242 17.4746 385.703 19.0215C385.176 20.5684 384.42 21.8867 383.436 22.9766C382.463 24.0664 381.303 24.9043 379.955 25.4902C378.619 26.0645 377.137 26.3516 375.508 26.3516C373.879 26.3516 372.391 26.0645 371.043 25.4902C369.695 24.9043 368.523 24.0664 367.527 22.9766C366.543 21.8867 365.781 20.5684 365.242 19.0215C364.703 17.4746 364.434 15.7285 364.434 13.7832V12.6406C364.434 10.6953 364.703 8.94922 365.242 7.40234C365.781 5.84375 366.537 4.51953 367.51 3.42969C368.494 2.33984 369.66 1.50781 371.008 0.933594C372.355 0.347656 373.844 0.0546875 375.473 0.0546875C377.102 0.0546875 378.59 0.347656 379.938 0.933594C381.285 1.50781 382.445 2.33984 383.418 3.42969C384.402 4.51953 385.164 5.84375 385.703 7.40234C386.242 8.94922 386.512 10.6953 386.512 12.6406ZM380.729 13.7832V12.6055C380.729 11.3047 380.611 10.1562 380.377 9.16016C380.143 8.15234 379.803 7.30859 379.357 6.62891C378.912 5.94922 378.361 5.43945 377.705 5.09961C377.049 4.74805 376.305 4.57227 375.473 4.57227C374.605 4.57227 373.85 4.74805 373.205 5.09961C372.561 5.43945 372.016 5.94922 371.57 6.62891C371.137 7.30859 370.803 8.15234 370.568 9.16016C370.346 10.1562 370.234 11.3047 370.234 12.6055V13.7832C370.234 15.0723 370.346 16.2207 370.568 17.2285C370.803 18.2246 371.143 19.0684 371.588 19.7598C372.033 20.4512 372.578 20.9727 373.223 21.3242C373.879 21.6758 374.641 21.8516 375.508 21.8516C376.34 21.8516 377.078 21.6758 377.723 21.3242C378.379 20.9727 378.93 20.4512 379.375 19.7598C379.82 19.0684 380.154 18.2246 380.377 17.2285C380.611 16.2207 380.729 15.0723 380.729 13.7832ZM409.627 5.27539L403.018 26H396.9L406.375 0.40625H410.242L409.627 5.27539ZM415.111 26L408.484 5.27539L407.799 0.40625H411.719L421.229 26H415.111ZM414.83 16.4727V20.9023H401.488V16.4727H414.83ZM444.344 12.6406V13.7832C444.344 15.7285 444.074 17.4746 443.535 19.0215C443.008 20.5684 442.252 21.8867 441.268 22.9766C440.295 24.0664 439.135 24.9043 437.787 25.4902C436.451 26.0645 434.969 26.3516 433.34 26.3516C431.711 26.3516 430.223 26.0645 428.875 25.4902C427.527 24.9043 426.355 24.0664 425.359 22.9766C424.375 21.8867 423.613 20.5684 423.074 19.0215C422.535 17.4746 422.266 15.7285 422.266 13.7832V12.6406C422.266 10.6953 422.535 8.94922 423.074 7.40234C423.613 5.84375 424.369 4.51953 425.342 3.42969C426.326 2.33984 427.492 1.50781 428.84 0.933594C430.188 0.347656 431.676 0.0546875 433.305 0.0546875C434.934 0.0546875 436.422 0.347656 437.77 0.933594C439.117 1.50781 440.277 2.33984 441.25 3.42969C442.234 4.51953 442.996 5.84375 443.535 7.40234C444.074 8.94922 444.344 10.6953 444.344 12.6406ZM438.561 13.7832V12.6055C438.561 11.3047 438.443 10.1562 438.209 9.16016C437.975 8.15234 437.635 7.30859 437.189 6.62891C436.744 5.94922 436.193 5.43945 435.537 5.09961C434.881 4.74805 434.137 4.57227 433.305 4.57227C432.438 4.57227 431.682 4.74805 431.037 5.09961C430.393 5.43945 429.848 5.94922 429.402 6.62891C428.969 7.30859 428.635 8.15234 428.4 9.16016C428.178 10.1562 428.066 11.3047 428.066 12.6055V13.7832C428.066 15.0723 428.178 16.2207 428.4 17.2285C428.635 18.2246 428.975 19.0684 429.42 19.7598C429.865 20.4512 430.41 20.9727 431.055 21.3242C431.711 21.6758 432.473 21.8516 433.34 21.8516C434.172 21.8516 434.91 21.6758 435.555 21.3242C436.211 20.9727 436.762 20.4512 437.207 19.7598C437.652 19.0684 437.986 18.2246 438.209 17.2285C438.443 16.2207 438.561 15.0723 438.561 13.7832ZM473.998 10.707V15.1367H460.744V10.707H473.998ZM462.555 0.40625V26H456.824V0.40625H462.555ZM477.953 0.40625V26H472.24V0.40625H477.953ZM499.609 21.5703V26H485.986V21.5703H499.609ZM487.938 0.40625V26H482.207V0.40625H487.938ZM497.852 10.707V14.9961H485.986V10.707H497.852ZM499.627 0.40625V4.85352H485.986V0.40625H499.627ZM507.273 0.40625L511.773 9.125L516.273 0.40625H522.812L515.535 13.0977L523.006 26H516.414L511.773 17.123L507.15 26H500.541L508.029 13.0977L500.734 0.40625H507.273ZM535.979 5.27539L529.369 26H523.252L532.727 0.40625H536.594L535.979 5.27539ZM541.463 26L534.836 5.27539L534.15 0.40625H538.07L547.58 26H541.463ZM541.182 16.4727V20.9023H527.84V16.4727H541.182ZM555.596 0.40625L554.928 18.0371H550.41L549.742 0.40625H555.596ZM549.584 23.5039C549.584 22.7188 549.865 22.0566 550.428 21.5176C550.99 20.9785 551.734 20.709 552.66 20.709C553.574 20.709 554.307 20.9785 554.857 21.5176C555.42 22.0566 555.701 22.7188 555.701 23.5039C555.701 24.3008 555.42 24.9688 554.857 25.5078C554.307 26.0352 553.574 26.2988 552.66 26.2988C551.734 26.2988 550.99 26.0352 550.428 25.5078C549.865 24.9688 549.584 24.3008 549.584 23.5039Z" fill="#F7DD43"/>
</svg>
